HIERARCHY
ROOT Hips
{
	OFFSET	0.000000	0.000000	0.000000
	CHANNELS 6 Xposition Yposition Zposition Zrotation Xrotation Yrotation
	JOINT LeftUpLeg
	{
		OFFSET	12.830505	-7.049846	-1.643436
		CHANNELS 3 Zrotation Xrotation Yrotation
		JOINT LeftLeg
		{
			OFFSET	0.620834	-39.957500	-1.919341
			CHANNELS 3 Zrotation Xrotation Yrotation
			JOINT LeftFoot
			{
				OFFSET	-0.413890	-44.704761	-3.870325
				CHANNELS 3 Zrotation Xrotation Yrotation
				JOINT LeftFootHeel
				{
					OFFSET	0.717369	-8.904096	-5.182565
					CHANNELS 3 Zrotation Xrotation Yrotation
					End Site
					{
						OFFSET	0.332974	0.000000	18.777164
					}
				}
			}
		}
	}
	JOINT RightUpLeg
	{
		OFFSET	-12.830505	-7.049846	-1.643436
		CHANNELS 3 Zrotation Xrotation Yrotation
		JOINT RightLeg
		{
			OFFSET	-0.620834	-39.957500	-1.919341
			CHANNELS 3 Zrotation Xrotation Yrotation
			JOINT RightFoot
			{
				OFFSET	0.413890	-44.704761	-3.870325
				CHANNELS 3 Zrotation Xrotation Yrotation
				JOINT RightFootHeel
				{
					OFFSET	-0.717369	-8.904096	-5.182565
					CHANNELS 3 Zrotation Xrotation Yrotation
					End Site
					{
						OFFSET	-0.332974	0.000000	18.777164
					}
				}
			}
		}
	}
	JOINT Spine
	{
		OFFSET	0.000000	12.498170	1.820647
		CHANNELS 3 Zrotation Xrotation Yrotation
		JOINT Spine1
		{
			OFFSET	0.000000	7.620000	0.000000
			CHANNELS 3 Zrotation Xrotation Yrotation
			JOINT LeftShoulder
			{
				OFFSET	9.167800	29.136339	-5.551221
				CHANNELS 3 Zrotation Xrotation Yrotation
				JOINT LeftArm
				{
					OFFSET	12.133453	-3.880866	1.461963
					CHANNELS 3 Zrotation Xrotation Yrotation
					JOINT LeftForeArm
					{
						OFFSET	2.507115	-31.664908	-1.069404
						CHANNELS 3 Zrotation Xrotation Yrotation
						JOINT LeftHand
						{
							OFFSET	4.116172	-24.512624	5.009439
							CHANNELS 3 Zrotation Xrotation Yrotation
							End Site
							{
								OFFSET	-0.213136	-10.931856	2.182134
							}
						}
					}
				}
			}
			JOINT RightShoulder
			{
				OFFSET	-9.167800	29.136339	-5.551221
				CHANNELS 3 Zrotation Xrotation Yrotation
				JOINT RightArm
				{
					OFFSET	-12.133453	-3.880866	1.461963
					CHANNELS 3 Zrotation Xrotation Yrotation
					JOINT RightForeArm
					{
						OFFSET	-2.507115	-31.664908	-1.069404
						CHANNELS 3 Zrotation Xrotation Yrotation
						JOINT RightHand
						{
							OFFSET	-4.116172	-24.512624	5.009439
							CHANNELS 3 Zrotation Xrotation Yrotation
							End Site
							{
								OFFSET	0.213136	-10.931856	2.182134
							}
						}
					}
				}
			}
			JOINT Neck
			{
				OFFSET	0.000000	32.926272	-3.635654
				CHANNELS 3 Zrotation Xrotation Yrotation
				JOINT Head
				{
					OFFSET	0.000000	12.481178	4.646143
					CHANNELS 3 Zrotation Xrotation Yrotation
					End Site
					{
						OFFSET	0.000000	17.715204	-2.222063
					}
				}
			}
		}
	}
}
MOTION
Frames:     8
Frame Time: 0.016667
38.676299	96.102485	-13.069633	7.188622	1.821185	22.516787	-4.369423	-23.364120	3.080899	-17.623478	63.568653	38.130581	-10.761373	-19.848742	16.582785	0.	0.	0.	-20.570477	-25.286736	-11.712771	12.769758	49.342949	-5.415693	-4.260074	-21.944265	-17.439297	0.	0.	0.	-2.670325	-5.606000	-4.511528	1.327090	0.673227	9.380945	4.890348	-1.780608	2.096382	4.029181	-17.172813	33.226299	56.938778	-107.237190	80.083420	-26.287661	-11.387023	34.118568	-1.559730	-1.610844	5.250035	-17.209181	-3.416463	1.916556	43.687244	-67.218307	53.328060	57.434509	5.363935	-18.763912	-0.272770	9.410353	21.151054	-18.861870	7.488634	12.140991	
38.360383	96.149207	-12.687961	7.270772	2.174093	22.561354	-4.050648	-24.535242	3.378203	-18.553532	65.192017	38.333767	-9.975700	-19.511965	16.673670	0.	0.	0.	-20.576363	-25.363531	-11.731716	12.921959	49.270542	-6.225591	-4.192909	-22.099318	-16.832888	0.	0.	0.	-2.633403	-5.410502	-4.187541	1.552601	0.603916	8.963380	5.179173	-2.361341	2.181019	5.626956	-17.759495	33.457638	61.287731	-105.650787	84.554504	-25.630575	-11.175514	33.864761	-1.475175	-1.806486	5.385529	-16.933481	-3.903620	1.868942	41.172768	-66.732933	50.319096	58.498959	5.528419	-20.540947	0.167383	9.023439	21.482643	-19.333675	7.692132	11.887497	
38.048736	95.894804	-12.408556	6.807748	3.286539	23.743351	-3.470445	-27.256916	3.689949	-18.714104	68.384888	36.989086	-8.613267	-19.494320	16.175438	0.	0.	0.	-21.263683	-26.174147	-13.533968	13.244805	49.874603	-7.560203	-3.883991	-22.569752	-15.601848	0.	0.	0.	-2.524241	-5.673659	-4.521496	2.111281	0.998370	7.962520	5.673787	-4.032529	2.455999	8.687887	-18.898981	33.881084	-105.796516	-77.072479	-82.445908	-23.690266	-10.792608	33.009068	-1.379722	-2.590445	5.688130	-16.363642	-4.758765	2.021343	36.470039	-66.041260	44.055271	61.143417	5.983051	-25.288845	0.852835	7.754609	22.143950	-20.002647	7.833933	11.381522	
37.468023	95.242673	-11.991684	6.221697	5.474747	23.787014	-2.458533	-31.426617	7.137074	-12.527967	72.870041	28.370253	-7.893402	-20.405155	14.677414	0.	0.	0.	-22.061489	-29.271982	-13.412584	15.710178	51.342602	-10.686354	-4.227274	-23.142229	-15.375270	0.	0.	0.	-2.691777	-6.957723	-3.560954	2.992879	2.245157	6.824450	6.287879	-6.542686	2.631304	13.225287	-20.557964	34.575809	-75.551674	-78.804581	-51.705593	-20.220028	-10.533343	31.623381	-1.407999	-3.814086	5.928182	-15.476933	-5.650269	2.422611	31.198566	-65.314545	36.302742	64.669525	6.418149	-32.696667	1.459990	5.540284	22.817795	-20.541739	7.446805	10.871690	
37.078606	95.013579	-11.591153	5.906649	6.877331	23.539957	-2.488037	-33.540512	7.771397	-10.362863	74.179741	25.710625	-8.134264	-20.881027	13.957455	0.	0.	0.	-22.287798	-31.035990	-13.167268	16.833244	51.770008	-11.636917	-4.693562	-23.290600	-15.855156	0.	0.	0.	-2.750062	-7.999361	-3.096414	3.754208	3.807332	6.326313	5.856962	-8.292287	2.931370	14.805393	-21.098806	34.904888	-64.863266	-78.447937	-40.683807	-18.956118	-10.509609	31.367626	-2.008097	-5.273397	6.209256	-15.256896	-5.833767	2.473756	30.034760	-65.151886	34.573879	65.272888	6.149893	-34.750916	1.499915	3.706094	23.413553	-21.107882	7.461620	10.622174	
36.115639	94.357185	-11.188576	5.535330	7.940629	23.773453	-3.799253	-37.547226	6.626249	-3.143264	77.727608	18.060135	-9.922790	-22.078859	10.172212	0.	0.	0.	-22.370298	-32.984413	-12.680976	19.756933	53.002911	-13.643555	-6.303135	-24.013744	-17.588089	0.	0.	0.	-2.250412	-7.048946	-2.790359	3.933389	3.075321	5.964905	6.470039	-9.314077	2.588307	19.660278	-22.262396	35.834942	-40.426220	-75.441238	-15.164914	-15.800219	-10.461547	32.519924	-1.492278	-5.324542	6.798401	-14.895726	-6.278775	2.337215	27.614162	-64.839500	31.481796	65.230217	5.370671	-38.710938	1.646763	2.378764	23.625996	-20.811924	6.089381	10.467962	
35.521807	93.855413	-10.860008	5.010547	8.992113	24.338633	-4.908579	-40.792858	4.705821	2.509771	79.592056	11.639558	-10.719676	-22.603218	8.127000	0.	0.	0.	-22.612606	-34.480686	-12.710607	21.919847	53.747822	-16.014874	-6.903788	-24.666740	-17.971678	0.	0.	0.	-1.756035	-5.857164	-3.405598	4.081990	2.196380	6.365401	6.557622	-10.396045	2.429804	22.786018	-22.850130	36.187344	-30.772192	-72.574196	-5.227085	-14.013867	-10.005683	33.789616	-1.293146	-5.673677	7.312222	-14.770296	-6.520471	2.190078	26.623426	-64.815361	30.503973	64.010803	5.399505	-39.494167	1.930118	0.988849	23.651125	-20.824589	5.355856	10.504704	
35.197648	93.309381	-10.874501	4.095216	9.977009	25.489256	-6.328215	-43.992142	1.388243	5.113049	81.023399	7.098112	-10.318048	-23.504244	7.885257	0.	0.	0.	-22.986965	-35.989273	-13.559054	23.560535	54.589584	-17.878254	-7.347018	-25.225016	-18.378759	0.	0.	0.	-1.043616	-4.651599	-4.225111	4.030551	0.998560	6.826074	6.676356	-11.271749	2.152575	25.619284	-23.491926	36.242203	-26.095757	-69.846222	-0.704284	-11.582570	-8.667947	35.607578	-1.075179	-5.775203	7.603641	-14.548125	-6.762506	2.190918	25.704721	-64.837227	29.723768	62.217403	6.055586	-39.185875	2.524048	-0.225093	23.747194	-20.734997	4.822749	10.129364	
